<?xml version="1.0" encoding="UTF-8"?><svg id="Laag_2" xmlns="http://www.w3.org/2000/svg" viewBox="0 0 198 198"><defs><style>.cls-1{font-family:Termina-Demi, Termina;font-size:14.15px;font-weight:300;}.cls-2{fill:none;stroke:#000;stroke-miterlimit:10;stroke-width:4px;}</style></defs><g id="Laag_1-2"><g><text class="cls-1" transform="translate(148.61 42.47) rotate(45.6)"><tspan x="0" y="0">T</tspan></text><text class="cls-1" transform="translate(156.28 50.53) rotate(51.43)"><tspan x="0" y="0">i</tspan></text><text class="cls-1" transform="translate(159.25 53.49) rotate(59.52)"><tspan x="0" y="0">m</tspan></text><text class="cls-1" transform="translate(167.66 68.3) rotate(70.02)"><tspan x="0" y="0">e</tspan></text><text class="cls-1" transform="translate(171.13 78.27) rotate(75.73)"><tspan x="0" y="0">l</tspan></text><text class="cls-1" transform="translate(172.35 82.39) rotate(81.43)"><tspan x="0" y="0">e</tspan></text><text class="cls-1" transform="translate(173.91 92.77) rotate(89.07)"><tspan x="0" y="0">s</tspan></text><text class="cls-1" transform="translate(174.09 102.5) rotate(96.43)"><tspan x="0" y="0">s</tspan></text><text class="cls-1" transform="translate(172.86 112.25) rotate(101.61)"><tspan x="0" y="0"> </tspan></text><text class="cls-1" transform="translate(172.36 115.92) rotate(107.79)"><tspan x="0" y="0">C</tspan></text><text class="cls-1" transform="translate(168.58 127.6) rotate(116.66)"><tspan x="0" y="0">o</tspan></text><text class="cls-1" transform="translate(163.52 137.32) rotate(122.36)"><tspan x="0" y="0">.</tspan></text><text class="cls-1" transform="translate(161.33 140.77) rotate(125.38)"><tspan x="0" y="0"> </tspan></text><text class="cls-1" transform="translate(159.15 143.85) rotate(128.25)"><tspan x="0" y="0"> </tspan></text><text class="cls-1" transform="translate(156.78 146.86) rotate(131.16)"><tspan x="0" y="0"> </tspan></text><text class="cls-1" transform="translate(154.78 149.45) rotate(136.45)"><tspan x="0" y="0">T</tspan></text><text class="cls-1" transform="translate(146.6 157) rotate(142.29)"><tspan x="0" y="0">i</tspan></text><text class="cls-1" transform="translate(143.6 159.93) rotate(150.38)"><tspan x="0" y="0">m</tspan></text><text class="cls-1" transform="translate(128.67 168.11) rotate(160.88)"><tspan x="0" y="0">e</tspan></text><text class="cls-1" transform="translate(118.64 171.44) rotate(166.6)"><tspan x="0" y="0">l</tspan></text><text class="cls-1" transform="translate(114.52 172.59) rotate(172.28)"><tspan x="0" y="0">e</tspan></text><text class="cls-1" transform="translate(104.14 173.92) rotate(179.07)"><tspan x="0" y="0">s</tspan></text><text class="cls-1" transform="translate(94.37 174.03) rotate(-172.71)"><tspan x="0" y="0">s</tspan></text><text class="cls-1" transform="translate(84.63 172.65) rotate(-167.52)"><tspan x="0" y="0"> </tspan></text><text class="cls-1" transform="translate(80.99 172.1) rotate(-161.35)"><tspan x="0" y="0">C</tspan></text><text class="cls-1" transform="translate(69.35 168.14) rotate(-152.47)"><tspan x="0" y="0">o</tspan></text><text class="cls-1" transform="translate(59.71 162.93) rotate(-146.78)"><tspan x="0" y="0">.</tspan></text><text class="cls-1" transform="translate(56.3 160.69) rotate(-143.77)"><tspan x="0" y="0"> </tspan></text><text class="cls-1" transform="translate(53.25 158.47) rotate(-140.9)"><tspan x="0" y="0"> </tspan></text><text class="cls-1" transform="translate(50.3 156.07) rotate(-138.01)"><tspan x="0" y="0"> </tspan></text><text class="cls-1" transform="translate(47.72 154.02) rotate(-132.69)"><tspan x="0" y="0">T</tspan></text><text class="cls-1" transform="translate(40.29 145.73) rotate(-126.86)"><tspan x="0" y="0">i</tspan></text><text class="cls-1" transform="translate(37.41 142.69) rotate(-118.77)"><tspan x="0" y="0">m</tspan></text><text class="cls-1" transform="translate(29.45 127.64) rotate(-108.25)"><tspan x="0" y="0">e</tspan></text><text class="cls-1" transform="translate(26.28 117.57) rotate(-102.55)"><tspan x="0" y="0">l</tspan></text><text class="cls-1" transform="translate(25.19 113.41) rotate(-96.86)"><tspan x="0" y="0">e</tspan></text><text class="cls-1" transform="translate(23.93 102.99) rotate(-89.07)"><tspan x="0" y="0">s</tspan></text><text class="cls-1" transform="translate(24.05 93.25) rotate(-81.85)"><tspan x="0" y="0">s</tspan></text><text class="cls-1" transform="translate(25.57 83.54) rotate(-76.67)"><tspan x="0" y="0"> </tspan></text><text class="cls-1" transform="translate(26.18 79.9) rotate(-70.49)"><tspan x="0" y="0">C</tspan></text><text class="cls-1" transform="translate(30.31 68.33) rotate(-61.62)"><tspan x="0" y="0">o</tspan></text><text class="cls-1" transform="translate(35.67 58.75) rotate(-55.91)"><tspan x="0" y="0">.</tspan></text><text class="cls-1" transform="translate(37.95 55.37) rotate(-52.91)"><tspan x="0" y="0"> </tspan></text><text class="cls-1" transform="translate(40.23 52.36) rotate(-50.04)"><tspan x="0" y="0"> </tspan></text><text class="cls-1" transform="translate(42.19 49.71) rotate(-44.72)"><tspan x="0" y="0">T</tspan></text><text class="cls-1" transform="translate(50.21 41.99) rotate(-38.89)"><tspan x="0" y="0">i</tspan></text><text class="cls-1" transform="translate(53.15 39.01) rotate(-30.81)"><tspan x="0" y="0">m</tspan></text><text class="cls-1" transform="translate(67.91 30.51) rotate(-20.31)"><tspan x="0" y="0">e</tspan></text><text class="cls-1" transform="translate(77.85 26.99) rotate(-14.61)"><tspan x="0" y="0">l</tspan></text><text class="cls-1" transform="translate(81.95 25.75) rotate(-8.91)"><tspan x="0" y="0">e</tspan></text><text class="cls-1" transform="translate(92.34 24.12) rotate(-1.22)"><tspan x="0" y="0">s</tspan></text><text class="cls-1" transform="translate(102.09 23.9) rotate(6.12)"><tspan x="0" y="0">s</tspan></text><text class="cls-1" transform="translate(111.85 25.07) rotate(11.3)"><tspan x="0" y="0"> </tspan></text><text class="cls-1" transform="translate(115.5 25.54) rotate(17.46)"><tspan x="0" y="0">C</tspan></text><text class="cls-1" transform="translate(127.21 29.26) rotate(26.34)"><tspan x="0" y="0">o</tspan></text><text class="cls-1" transform="translate(136.96 34.27) rotate(32.04)"><tspan x="0" y="0">.</tspan></text><circle class="cls-2" cx="99" cy="99" r="97"/><circle class="cls-2" cx="99" cy="99" r="58"/><line class="cls-2" x1="99" y1="41" x2="99" y2="157"/><line class="cls-2" x1="157" y1="99" x2="97" y2="99"/><line class="cls-2" x1="99" y1="99" x2="140" y2="58"/></g></g></svg>